<svg width="20" height="20" viewBox="0 0 20 20" fill="none" xmlns="http://www.w3.org/2000/svg">
<path fill-rule="evenodd" clip-rule="evenodd" d="M10 20C15.5228 20 20 15.5228 20 10C20 4.47715 15.5228 0 10 0C4.47715 0 0 4.47715 0 10C0 15.5228 4.47715 20 10 20ZM9.12109 10.7441C8.97461 11.1484 8.89551 11.6992 8.88379 12.3965H10.5098C10.5098 11.5059 10.7236 10.8232 11.1514 10.3486L12.1094 9.39941C13.0586 8.40332 13.5332 7.39258 13.5332 6.36719C13.5332 5.33008 13.2227 4.51562 12.6016 3.92383C11.9863 3.32617 11.125 3.02734 10.0176 3.02734C8.95117 3.02734 8.08398 3.32031 7.41602 3.90625C6.75391 4.48633 6.41699 5.25098 6.40527 6.2002H8.03125C8.03125 5.66699 8.21289 5.24219 8.57617 4.92578C8.93945 4.60938 9.41992 4.45117 10.0176 4.45117C10.6328 4.45117 11.1016 4.62695 11.4238 4.97852C11.7461 5.32422 11.9072 5.80469 11.9072 6.41992C11.9072 7.05859 11.6611 7.65625 11.1689 8.21289L10.0176 9.39941C9.56641 9.8916 9.26758 10.3398 9.12109 10.7441ZM9.05078 14.5234C8.89258 14.6992 8.81348 14.9189 8.81348 15.1826C8.81348 15.4463 8.89258 15.666 9.05078 15.8418C9.21484 16.0117 9.45508 16.0967 9.77148 16.0967C10.0879 16.0967 10.3281 16.0117 10.4922 15.8418C10.6562 15.666 10.7383 15.4463 10.7383 15.1826C10.7383 14.9189 10.6562 14.6992 10.4922 14.5234C10.3281 14.3418 10.0879 14.251 9.77148 14.251C9.45508 14.251 9.21484 14.3418 9.05078 14.5234Z" fill="white"/>
</svg>
